<?xml version="1.0" standalone="no"?>
<!DOCTYPE svg PUBLIC "-//W3C//DTD SVG 20010904//EN"
 "http://www.w3.org/TR/2001/REC-SVG-20010904/DTD/svg10.dtd">
<svg version="1.0" xmlns="http://www.w3.org/2000/svg"
 width="64.000000pt" height="64.000000pt" viewBox="0 0 64.000000 64.000000"
 preserveAspectRatio="xMidYMid meet">

<g transform="translate(0.000000,64.000000) scale(0.100000,-0.100000)"
fill="#000000" stroke="none">
<path d="M482 548 c3 -7 14 -14 26 -16 12 -2 22 -12 24 -25 5 -38 33 -27 33
13 0 34 -1 35 -44 38 -32 2 -42 0 -39 -10z m56 -5 c-10 -2 -26 -2 -35 0 -10 3
-2 5 17 5 19 0 27 -2 18 -5z"/>
<path d="M117 494 c-13 -13 -8 -339 5 -352 18 -18 382 -17 397 2 8 9 11 66 9
182 l-3 169 -201 3 c-110 1 -203 -1 -207 -4z m393 -29 l0 -25 -190 0 -190 0 0
25 0 25 190 0 190 0 0 -25z m0 -180 l0 -145 -190 0 -190 0 0 145 0 145 190 0
190 0 0 -145z"/>
<path d="M150 470 c0 -6 28 -10 65 -10 37 0 65 4 65 10 0 6 -28 10 -65 10 -37
0 -65 -4 -65 -10z"/>
<path d="M400 470 c0 -5 5 -10 10 -10 6 0 10 5 10 10 0 6 -4 10 -10 10 -5 0
-10 -4 -10 -10z"/>
<path d="M440 470 c0 -5 5 -10 10 -10 6 0 10 5 10 10 0 6 -4 10 -10 10 -5 0
-10 -4 -10 -10z"/>
<path d="M480 470 c0 -5 5 -10 10 -10 6 0 10 5 10 10 0 6 -4 10 -10 10 -5 0
-10 -4 -10 -10z"/>
<path d="M212 347 c-23 -23 -42 -47 -42 -52 0 -11 81 -95 92 -95 18 0 6 28
-27 60 l-35 34 35 36 c33 34 45 60 27 60 -4 0 -27 -19 -50 -43z m15 -15 l-37
-38 35 -34 c19 -19 35 -38 35 -44 0 -6 -18 8 -40 29 -22 21 -40 44 -40 49 0
13 72 87 79 81 2 -3 -12 -22 -32 -43z"/>
<path d="M325 378 c-12 -37 -35 -139 -35 -158 0 -12 5 -20 12 -18 12 4 47 125
48 166 0 23 -18 31 -25 10z m0 -88 c-10 -39 -20 -69 -22 -66 -3 3 2 37 12 76
10 39 20 69 22 66 3 -3 -2 -37 -12 -76z"/>
<path d="M370 377 c0 -7 16 -28 35 -47 l35 -34 -35 -36 c-32 -33 -45 -60 -28
-60 11 0 93 83 93 94 0 12 -81 96 -92 96 -4 0 -8 -6 -8 -13z m90 -82 c0 -6
-18 -29 -40 -50 -49 -48 -54 -35 -5 15 l35 36 -35 34 c-19 19 -35 38 -35 44 0
6 18 -8 40 -29 22 -21 40 -44 40 -50z"/>
<path d="M77 154 c-12 -13 -7 -61 7 -73 8 -7 27 -11 42 -9 36 4 45 28 10 28
-19 0 -25 6 -28 27 -3 26 -18 39 -31 27z m73 -70 c0 -2 -13 -4 -30 -4 -16 0
-30 4 -30 8 0 5 14 7 30 4 17 -2 30 -6 30 -8z"/>
</g>
</svg>
