<?xml version="1.0" encoding="utf-8"?>
<!-- Generator: Adobe Illustrator 23.1.1, SVG Export Plug-In . SVG Version: 6.00 Build 0)  -->
<svg version="1.1" id="Layer_1" xmlns="http://www.w3.org/2000/svg" xmlns:xlink="http://www.w3.org/1999/xlink" x="0px" y="0px"
	 viewBox="0 0 992 439.9" style="enable-background:new 0 0 992 439.9;" xml:space="preserve">
<style type="text/css">
	.st0{fill:#F2F2F2;}
	.st1{fill:#EE6C4D;}
	.st2{fill:#005AD4;}
	.st3{fill:#3F3D56;}
	.st4{fill:#11AB7C;}
	.st5{opacity:0.1;enable-background:new    ;}
	.st6{fill:#FFC1C7;}
	.st7{fill:#3C354C;}
	.st8{fill:#CBCEDA;}
	.st9{fill:#EF6C4D;}
	.st10{fill:none;stroke:#11AB7C;stroke-width:4;stroke-miterlimit:10;}
	.st11{fill:#F5B759;}
	.st12{fill:#57B894;}
</style>
<path class="st0" d="M104.5,192.8l35.1,176.3l168.4,62.8c11.7-31.3,14.4-65.2,7.9-97.9C296.6,236.6,201.9,173.4,104.5,192.8z"/>
<path class="st1" d="M89.8,423.5c5.5,10.2,17.2,14.6,17.2,14.6s2.8-12.2-2.7-22.4C98.7,405.5,87,401.1,87,401.1
	S84.3,413.3,89.8,423.5z"/>
<path class="st2" d="M93.6,420.1c10,6,13.8,17.9,13.8,17.9s-12.3,2.2-22.3-3.8c-10-6-13.8-17.9-13.8-17.9S83.6,414.1,93.6,420.1z"/>
<path class="st3" d="M103.6,438.4c15.6-41,17.8-94.1,14.6-152.1c0-0.9-0.1-1.8-0.2-2.8c-0.5-8.4-1.1-16.8-1.8-25.4h34
	c-0.5,8.9-0.8,17.7-1,26.4c0,0.6,0,1.1,0,1.7c-1.1,55.8,3.9,107.6,20.2,152.2L103.6,438.4z"/>
<path class="st4" d="M358.9,438.1c-10.6-1.8-20.9-3.3-30.7-4.6l3.9-7.5c-1.3-0.5-7.1,3.9-7.1,3.9l5.1-21.8
	c-6.6,0.8-9.9,23.1-9.9,23.1l-7.4-7.5l3.6,8.5c-30-3.5-56-4.9-77.8-4.9l3.3-6.4c-1.3-0.5-7.1,3.9-7.1,3.9l5.1-21.8
	c-6.6,0.8-9.9,23.1-9.9,23.1l-7.4-7.5l3.8,9c-15,0.2-29.9,1.3-44.7,3c3.4-10,14.8-19.6,14.8-19.6c-8.7,2.6-13.3,6.9-15.7,11
	c-0.2-20.7,3.2-41.3,10.2-60.8c0,0-18,39.2-15.7,65.5l0.3,4.7c-15.3,2.2-21.3,7.3-21.3,7.3L358.9,438.1z"/>
<path class="st4" d="M243.9,192.5C242.7,261,192.5,284,131.1,283c-1.4,0-2.8-0.1-4.3-0.1c-2.8-0.1-5.7-0.3-8.4-0.5
	c-55.4-4.2-98-30.1-96.9-93.8C22.7,122.7,130.1,47.5,138,41.5C138,41.5,245.1,124,243.9,192.5z"/>
<path class="st5" d="M204.8,326v0.8h5.2V326c0-0.7-0.5-1.2-1.2-1.2H206C205.3,324.8,204.8,325.4,204.8,326z"/>
<path class="st5" d="M253.4,376.5c2.3-2.1,2.4-5.7,0.2-7.9c-1.5-1.6-3.9-2.2-6-1.4c2.5-1.8,6-1.2,7.8,1.4c1.8,2.5,1.2,6-1.4,7.8
	c-0.4,0.3-0.9,0.5-1.3,0.7C253,376.9,253.2,376.7,253.4,376.5z"/>
<circle class="st0" cx="251" cy="367.6" r="0.2"/>
<path class="st3" d="M149.3,284.6l-0.8-8.3l-3.9-18.1l-8.6-39.9l38-69.6l-37.9,60.7l0.4-25.3l26.2-50.3l-26.1,43.6l0.7-45.5
	L165.5,92l-27.9,32.9l0.5-83v-0.4l0,0.4l-2.8,105.3l-28.4-43.5l28.1,52.4l-2.7,50.8l-0.1-1.3l-32.9-46l32.8,50.7l-0.3,6.3l-0.1,0.1
	l0,0.5l-8.4,41l-5.2,25.4c0.1,0.9,0.1,1.8,0.2,2.8c4.8,0.1,27.9-0.1,31.1,0L149.3,284.6z"/>
<path class="st6" d="M928.7,167.7c-0.9-4.4-2.6-8.6-3.6-12.9c-0.4-2.3-1-4.5-1.7-6.7c-0.4-1-0.8-1.9-1.4-2.7l0.5-0.5
	c-1.6-2.7-1.7-6.1-2.4-9.2c-0.7-2.7-2-5.1-2.7-7.7c-1.1-3.6-1.2-7.7-3.5-10.8c-0.9-1.2-2.1-2.1-3-3.2c-1.1-1.3-2-2.7-3.2-4
	c-3.4-3.6-8.4-4.7-13.2-5.2s-9.7-0.5-14.2-2.5c-1.9-0.8-3.8-2-5.7-1.9c-1.1-1-2.1-2.2-3-3.4c-1.5-1.8-2.8-3.7-4-5.7
	c0.9-1.6,1.7-3.3,2.1-5L870,86c1.3-1,2.3-2.2,3.6-3.1c1.1-0.8,2.5-1.6,2.6-3c0.1-1.4-1.1-2.5-1.9-3.6c-2.8-4.1,0.3-10.6-2.6-14.6
	c-1.4-2-4-2.8-6.2-3.8c-3.1-1.4-5.9-3.4-9-4.7c-3.1-1.3-6.7-2.1-9.8-0.8c-5.8,2.4-7.9,10.7-13.9,12.9c-0.6,0.1-1.2,0.5-1.6,1
	c-0.7,1.2-1.7,8.2-1.5,9.6c0.2,1.9,0.7,2.9,2,3.5c0,0.4,0,0.8,0,1.2c0,9.9,6.9,18.2,16,19.9c0.9,0.9,1.6,2,2.2,3.1
	c0.5,1.2,0.7,2.4,0.8,3.7c-0.3-0.2-0.7-0.2-1-0.2c-1.2,0.2-2.2,1-2.5,2.2c-0.3,1.1-0.5,2.3-0.4,3.5c0.1,0.7-0.2,1.5-0.7,2
	c-0.3,0.2-0.6,0.3-0.9,0.3c-1.2,0.2-2.4,0.4-3.7,0.4c-2,0-4.2-0.5-6,0.5c-1.8,1-2.6,3.1-3.5,5.1c-1.2,2.8-2.9,5.3-4.9,7.6
	c-2.2,2.5-4.9,4.9-5.5,8.3c0,0.1,0,0.2,0,0.2c-1.7,0.8-3.5,2.7-4.7,3.6c-2.4,1.8-4.6,3.8-6.8,5.8c-2.2,2.1-5.2,4.7-6.5,7.6
	c-0.7,1.2-1.6,2.3-2.7,3.1c-2.2,1.4-5.1,0.7-7.6-0.1c-7-2.2-13.9-4.5-20.4-7.9c-0.3-0.2-0.7-0.3-1.1-0.3c-0.2,0.1-0.4,0.2-0.5,0.4
	c-0.1-0.1-0.1-0.2-0.2-0.2c-1.7-1.9-4.5-2-5.5-4.9c-0.3-0.9-0.5-1.9-0.6-2.8c-0.6-2.8-1.6-5.4-2.9-7.9c-0.2-0.5-0.5-1-1-1.3
	c-0.9-0.4-1.9-0.1-2.3,0.7c-0.4,0.8-0.6,1.8-0.5,2.7c0.1,1,0.2,2.2-0.5,2.9c-0.3,0.3-0.6,0.5-1,0.6c-2.3,0.7-4.7,0.1-6.8-1
	c-2.1-1.1-4-2.6-6.1-3.8c-1.1-0.6-2.2-1.1-3.4-1.6c-1.2-0.5-2.9-0.8-3.5,0.3c-0.5,0.9,0,2.1,0.6,3c1,1.5,2.3,2.9,3.6,4.1
	c4.1,3.6,9.2,5.7,13.9,8.2c4.2,2.2,8.1,4.8,11.7,7.8c-0.1,0.5-0.2,0.9-0.3,1.4c0,1.9,0.8,3.6,2.2,4.9c1.3,1.2,2.9,2.2,4.5,3
	c8.3,4.3,16.6,8.5,25,12.6c0.5,0.3,1.1,0.5,1.7,0.6c1.7,0,2.8-1.8,4.2-2.9s3.1-1.4,4.8-1.9c2.9-1,5.5-2.9,8-4.8l8-6
	c4-3,8.1-6.2,11.5-10c0.4,0.9,1,1.7,1.8,2.3c-0.7,1.5,0.7,3,1,4.6c0.1,1,0.1,2.1,0.1,3.1c0.1,1.5,0.4,3,0.8,4.5
	c0.4,2.4,0.6,4.9,0.5,7.3c0,2.7,0.1,5.5,0.1,8.2c0.1,3.5,0.1,7.1-0.6,10.5c-1,4.7-3.5,9.1-3.3,13.9c0.1,0.9,0.1,1.8-0.3,2.7
	c-2,3.9-3.6,8.2-5.8,12.1c-0.6,0.9-1.2,1.9-1.6,3c-0.3,1.1-0.2,2.3,0.3,3.3c-0.9,1.6-1.4,3.3-1.4,5.1c-0.1,4.4,1.6,8.6,2.5,12.9
	c0.8,4,0.8,8.1,0.9,12.2c0.6,19,4.3,37.9,5.1,56.9c0.4,8.8,0.1,17.6-0.8,26.3c-0.6,5.6-1.4,11.3-1.7,16.9c-0.9,16.1,2.5,32,5.8,47.8
	c1-1.2,2.4-2,4-2.1c-0.4,1.6-0.9,3.6-1.5,5.1c-0.8,0.1-1.6,0.4-2.3,0.8c-1.9,1.2-2.6,3.8-3.7,5.9c-2.5,4.5-7.3,6.8-11.3,9.9
	c-1.9,1.5-3.8,3.7-3.2,6.1c6.9,2,14.4,3.8,21.1,1c2.7-1.1,5.2-3,8.1-3.1c2.2-0.1,4.5,0.9,6.6,0.2c0.5-0.1,1-0.5,1.3-0.9
	c0.2-0.5,0.4-1,0.3-1.6c0.2-3.7,0.2-7.4,0-11c-0.2-3.1,0.1-5.5-2.4-5.9c-0.6-1.6-1.1-3.2-1.4-4.9c0-0.3-0.1-0.6-0.1-0.9
	c0.7,0,1.4-0.1,2.1-0.2c0.4-0.1,0.8-0.2,1.3-0.3c-0.1-0.5-0.2-1.1-0.4-1.6c-0.2-1.1-0.4-2.2-0.5-3.3c-0.1-1.1-0.2-2.2-0.3-3.3
	c0-0.6-0.1-1.1-0.1-1.7c0-1.1-0.1-2.2-0.1-3.3s0-2.2,0.1-3.3c0.1-1.1,0.1-2.2,0.2-3.3c0.2-2.8,0.5-5.5,0.7-8.3
	c0.8-8.1,1.6-16.1,2.4-24.2c0.2-2.4,0.5-4.9,0.5-7.3c0-1.5,0-2.9-0.2-4.4c-0.4-3.5-1.5-7-1.6-10.5c0-0.6,0-1.2,0.1-1.7
	c0.1-0.6,0.2-1.2,0.3-1.7c0.1-0.3,0.2-0.6,0.3-0.9c0.2-0.6,0.4-1.2,0.6-1.8c0.1-0.3,0.2-0.6,0.3-0.9c0.3-1.3,0.5-2.7,0.6-4
	c0-0.5,0.1-0.9,0.1-1.4l1-19c0.2-3.1,0.4-6.4,1.6-9.1c0.5-1.2,1.3-2.3,2.2-3.2c-0.2-0.6,0-1.7,0.7-1.9c0.8,9.7,0.7,19.5-0.3,29.2
	c-0.3,3-0.9,6.1-1,9.1c-0.3,6.7,1.2,13.4,1.7,20.2c0.5,6.7,0,13.7,0,20.5c-0.1,11.8,1.2,23.5,2.5,35.1l0.8,0.5c0,1,0.1,2.2,0.1,3.1
	c0,0.3,0,0.7,0.1,1h-0.3c-1.5,0.1-2.9,1-3.7,2.3c-0.8,1.3-1.3,2.8-1.7,4.3c-0.4,1.1-0.5,2.3-0.5,3.5c0.3,2.2,2.2,3.9,2.7,6.1
	c0.9,4-3,8.2-1.2,11.9c1.1,2.3,4,3,6.4,3.4c3.8,0.6,8.1,1.1,11.1-1.4c1.6-1.4,2.6-3.5,2.5-5.7c0-2.9-1.7-5.4-2.4-8.2
	c-1-3.9,0.5-9-1.1-12.6c-0.1-0.4-0.3-0.7-0.6-1h0.6c-0.1-1.3-0.3-2.6-0.4-3.9l1.3-0.7c1.4-0.7,2.9-1.2,4.3-0.7
	c-0.5-6.7-0.7-14.1,0.9-20.7c1.2-5.2,3.4-10,4.4-15.2c0.8-4.3,0.8-8.7,0.9-13.1c0-8.1,0-16.3-1.4-24.2c-0.5-3.2-1.3-6.5-0.7-9.6
	c0.4-2.1,1.3-4,1.9-6.1c1.3-4.8,0.4-10,1.1-14.9c1.9-11.8,2.8-24.1,4.3-36c0.7-6.7,0.9-13.5,0.7-20.2v-0.1l2.8-5.5
	c2-3.9,4-7.9,5.3-12.1c0.4,0.6,0.8,1.2,1,1.9l12.3-20.5c0.8-1.2,1.4-2.5,1.9-3.9c0.3-1,0.4-2,0.6-3c0.6-2.6,1.9-5,2.9-7.4
	C929.5,183,930.2,175.2,928.7,167.7z M911.7,177.1c-0.6,3.4-1.4,6.7-2.3,10c-1.6,5.6-3.5,11.1-5.4,16.6l-1.6,4.7
	c-0.6,1.9-1.4,3.7-2.5,5.3c-0.2,0.4-0.5,0.8-0.7,1.3c-1.7-6.2,0.1-13.3-0.2-19.9c-0.3-5-1.9-10.2-0.7-15c0.8-3.3,2.7-6.1,4.1-9.2
	c1.3-2.9,2.1-6,3.5-8.7c0,0.1,0,0.1,0.1,0.1c1.3,3.4,2.8,6.7,4.6,9.8c0.5,0.7,0.9,1.5,1.1,2.3C911.9,175.3,911.9,176.2,911.7,177.1
	L911.7,177.1z"/>
<path class="st7" d="M839.6,411.5c4.2,3.3,9.5,4.7,14.7,4.1c1.1-0.1,2.3-0.5,2.7-1.6c0.1-0.6,0.1-1.3-0.2-1.9c-0.8-2-1.5-4-1.9-6.1
	c-0.3-1.9-0.2-4.2-1.7-5.3c-2.2-1.6-8.1-1.6-9.5,1C843.3,402.3,841.1,412.8,839.6,411.5z"/>
<path class="st7" d="M871.1,402.3c-0.2,0.8,0.3,1.6,1.1,1.8c0.1,0,0.1,0,0.2,0c3.6,1.1,7.3,1.7,11.1,1.9l-0.8-7.5
	c0.1-0.6-0.4-1.2-1.1-1.3c-0.1,0-0.1,0-0.2,0c-2.2-0.4-6.7-1.8-8.8-1.1C870.3,397,871.2,400,871.1,402.3z"/>
<path class="st6" d="M849.3,102.6c0.6,1.6,0.9,3.3,0.9,4.9c0.2,6.1-0.8,12.6-5.1,16.9c4.7-1.4,10.1-0.6,14.5-2.7
	c2.1-1,3.8-2.5,5.7-3.7c3.5-2.2,7.5-3.2,11.1-5.1s6.9-5.2,7.1-9.2c-1.6-1.6-4.1-1.9-6.1-2.9c-2.2-1.1-3.8-3-5.4-4.9
	c-1.8-2.1-3.4-4.4-4.8-6.8c-1.4-2.4-1.9-5.3-1.6-8c-4,0.7-6.9,4.2-10.7,5.7c-1.5,0.6-3.1,0.8-4.5,1.5c-2,0.9-6.2,4.1-6.2,6.6
	C844.3,97.6,848.2,100.2,849.3,102.6z"/>
<path class="st5" d="M849.3,102.6c0.6,1.6,0.9,3.3,0.9,4.9c0.2,6.1-0.8,12.6-5.1,16.9c4.7-1.4,10.1-0.6,14.5-2.7
	c2.1-1,3.8-2.5,5.7-3.7c3.5-2.2,7.5-3.2,11.1-5.1s6.9-5.2,7.1-9.2c-1.6-1.6-4.1-1.9-6.1-2.9c-2.2-1.1-3.8-3-5.4-4.9
	c-1.8-2.1-3.4-4.4-4.8-6.8c-1.4-2.4-1.9-5.3-1.6-8c-4,0.7-6.9,4.2-10.7,5.7c-1.5,0.6-3.1,0.8-4.5,1.5c-2,0.9-6.2,4.1-6.2,6.6
	C844.3,97.6,848.2,100.2,849.3,102.6z"/>
<path class="st2" d="M900.7,260.3c-1.5,11.9-2.5,24.3-4.4,36.1c-0.8,5,0.2,10.2-1.2,15c-0.6,2.1-1.6,4-2,6.1
	c-0.6,3.2,0.2,6.5,0.8,9.7c1.4,8,1.4,16.2,1.4,24.3c0,4.4,0,8.8-0.9,13.1c-1,5.2-3.3,10.2-4.6,15.3c-1.6,6.6-1.5,14-0.9,20.7
	c-1.5-0.5-3.1,0-4.5,0.7s-2.8,1.6-4.4,1.7c-2.1,0.2-4.1-0.9-5.9-2c-1.4-0.8-2.6-1.6-4-2.4c-1.4-11.7-2.7-23.5-2.6-35.3
	c0-6.9,0.5-13.7,0-20.6s-2.1-13.5-1.8-20.2c0.1-3.1,0.7-6.1,1-9.2c1.2-9.9,1-19.4,0.3-29.3c-0.7,0.2-1,1.3-0.7,1.9
	c-1,0.9-1.8,2-2.3,3.2c-1.2,2.7-1.5,6-1.7,9.1l-1,19.1c0,1.8-0.3,3.6-0.7,5.4c-0.4,1.3-0.9,2.4-1.2,3.7c-1.1,4.6,0.7,9.3,1.3,14
	c0.5,3.9,0.1,7.8-0.3,11.7l-2.5,24.3c-0.9,8.8-1.8,17.9,0,26.6c0.1,0.5,0.2,1.1,0.4,1.6c-0.4,0.1-0.9,0.2-1.3,0.3
	c-1.6,0.2-3.1,0.2-4.7,0c-1.5-0.1-2.9-0.4-4.4-0.6c-3.5-0.4-6.9-0.5-9.2,2.1c-3.5-15.8-7-31.8-6.1-48c0.3-5.7,1.2-11.3,1.8-17
	c0.9-8.8,1.2-17.6,0.8-26.4c-0.8-19.1-4.7-38-5.3-57.1c-0.1-4.1-0.1-8.2-0.9-12.2c-0.9-4.3-2.7-8.6-2.6-13c0.1-4.4,3.4-9.3,7.8-9
	c12.3,0.7,23.5-6.1,35.8-7.3c5.6-0.5,11.2-1.3,16.7-0.3c5.5,1,11,4.1,13.2,9.3c1.2,2.8,1.3,5.9,1.4,8.9
	C901.5,243.1,901.7,251.7,900.7,260.3z"/>
<path class="st8" d="M839,410.3c-2,1.2-2.7,3.8-3.9,5.9c-2.6,4.5-7.7,6.8-11.8,9.9c-2,1.5-4,3.7-3.4,6.2c7.2,2,15.1,3.8,22,1
	c2.8-1.1,5.5-3,8.5-3.1c2.3-0.1,4.7,0.9,6.8,0.2c0.5-0.1,1-0.4,1.4-0.9c0.3-0.5,0.4-1,0.4-1.6c0.2-3.7,0.2-7.4-0.1-11.1
	c-0.2-3.6,0.3-6.1-3.8-6C850.3,411.1,843.1,407.7,839,410.3z"/>
<path class="st8" d="M873.5,403.9c-0.9-0.3-1.8-0.5-2.7-0.6c-1.6,0.1-3,1-3.8,2.3c-0.8,1.3-1.4,2.8-1.7,4.3
	c-0.4,1.1-0.6,2.3-0.5,3.5c0.3,2.2,2.3,3.9,2.8,6.1c0.9,4-3.1,8.3-1.3,11.9c1.2,2.3,4.1,3,6.7,3.4c4,0.6,8.4,1.1,11.6-1.4
	c1.7-1.4,2.7-3.5,2.7-5.7c0-2.9-1.8-5.4-2.6-8.2c-1.1-3.9,0.5-9.1-1.2-12.6C882.1,403.9,876.7,404.9,873.5,403.9z"/>
<circle class="st6" cx="850.6" cy="79.5" r="20.3"/>
<path class="st9" d="M861.4,112.8c-2.2-0.9-4.6-1.1-6.9-0.5l-1.9-3.2c-0.8-1.4-1.9-3-3.6-3c-1.2,0.2-2.2,1-2.6,2.2
	c-0.3,1.1-0.5,2.3-0.4,3.5c0.1,0.8-0.2,1.5-0.7,2c-0.3,0.2-0.6,0.3-1,0.3c-1.3,0.2-2.5,0.3-3.8,0.4c-2.1,0-4.4-0.5-6.2,0.5
	s-2.7,3.1-3.6,5.1c-1.3,2.8-3,5.4-5.1,7.6c-2.3,2.5-5.1,4.9-5.8,8.3c-0.3,1.4,1,2.5,2.1,3.5c4.1,4.1,9.8,6.6,12.9,11.5
	c0.7,1.1,1.3,2.4,2.4,3.2c-0.7,1.5,0.8,3,1.1,4.6c0.1,1,0.1,2.1,0.1,3.1c0.1,1.5,0.4,3,0.8,4.5c0.4,2.4,0.6,4.9,0.6,7.3l0.1,8.2
	c0.1,3.5,0.1,7.1-0.7,10.6c-1.1,4.7-3.6,9.2-3.4,14c0.2,0.9,0.1,1.8-0.3,2.7c-2.1,3.9-3.8,8.2-6.1,12.1c-0.7,0.9-1.2,2-1.6,3
	c-0.6,2.2,0.6,4.6,2.5,6c1.8,1.4,4.2,2,6.4,2.4c21,4,42.9-0.8,62.8-8.8c0.5-0.2,1-0.4,1.4-0.8c1.5-1.4,0.3-3.8-0.5-5.6
	c-3.1-6.9-0.6-14.8-1.1-22.3c-0.3-5.1-1.9-10.2-0.7-15.1c0.8-3.3,2.9-6.1,4.3-9.2c1.6-3.3,2.4-7,4.5-10.1c1.5-2.1,3.3-4,5.3-5.6
	l12.7-11.3c-1.7-2.7-1.7-6.1-2.5-9.2c-0.7-2.7-2.1-5.1-2.9-7.7c-1.1-3.7-1.3-7.8-3.7-10.8c-0.9-1.2-2.1-2.1-3.2-3.2
	c-1.2-1.3-2.1-2.7-3.3-4c-3.5-3.6-8.8-4.7-13.8-5.2c-5-0.5-10.2-0.5-14.8-2.5c-2.3-1-4.7-2.5-7-1.7c-1.9,0.6-3.1,2.4-3.8,4.2
	c-0.8,1.8-1.3,3.7-2.5,5.3C866.3,110.8,863.6,112,861.4,112.8z"/>
<path class="st9" d="M802.4,153.3c-0.8,1.2-1.8,2.3-3,3.1c-2.4,1.4-5.5,0.7-8.2-0.1c-7.5-2.3-15.1-4.5-22.1-8
	c-0.3-0.2-0.8-0.3-1.2-0.3c-0.3,0.1-0.6,0.3-0.8,0.6c-1.1,1.2-2.1,2.4-3,3.8c-1,1.2-1.6,2.7-1.8,4.2c0,1.9,0.9,3.7,2.3,4.9
	c1.5,1.2,3.1,2.2,4.9,3c9,4.3,18,8.5,27.1,12.6c0.6,0.3,1.2,0.5,1.9,0.6c1.8,0,3-1.8,4.5-2.9c1.5-1.1,3.4-1.4,5.2-1.9
	c3.2-1,5.9-2.9,8.6-4.8l8.7-6.1c7.6-5.3,15.6-11.1,18.9-19.5l-10.5-3.3c-3.2-1-6.5-2.5-9.8-3.1c-2.4-0.5-5.4,2.6-7.2,4
	c-2.6,1.8-5,3.8-7.4,5.9C807.1,147.8,803.9,150.5,802.4,153.3z"/>
<path class="st6" d="M897.1,220c-2.9,1.1-6.1-0.6-9.2-0.1c-1.4,0.3-2.8,0.9-4,1.7l-8.9,5c-0.5,0.3-1.1,1-0.7,1.4
	c0.1,0.1,0.3,0.1,0.5,0.2c3,0.4,5.7-1.4,8.7-1.9c1.3-0.2,2.6-0.2,3.9-0.1c0.2,0,0.4,0,0.6,0.1c0.4,0.3,0.7,0.7,0.7,1.2
	c0,0.5-0.1,1-0.2,1.5c0.1,1.2,0.5,2.2,1.3,3.1c2.8,4.1,6,7.9,9.4,11.5c0.9-1.1,1.6-2.3,2.2-3.5l2.9-5.5c3-5.6,6.1-11.5,6.6-17.9
	c-2.2-0.7-6.2-3-8.5-1.8S899.7,219.2,897.1,220z"/>
<path class="st3" d="M848,76.3c5.7,0.6,10.9,3.3,16.1,6c-0.9,1.4,0.2,3.4,1.8,3.8c1.6,0.5,3.3-0.2,4.6-1.2s2.4-2.2,3.7-3.1
	c1.1-0.8,2.6-1.6,2.7-3s-1.2-2.5-2-3.6c-2.9-4.1,0.3-10.6-2.7-14.7c-1.5-2-4.1-2.8-6.5-3.8c-3.2-1.4-6.2-3.4-9.4-4.7
	c-3.2-1.4-7-2.1-10.2-0.8c-6.1,2.4-8.3,10.8-14.5,13c-0.7,0.1-1.3,0.5-1.7,1c-0.8,1.2-1.8,8.2-1.6,9.7c0.3,2.4,1,3.3,3.3,4
	C836.7,80.3,842.6,75.7,848,76.3z"/>
<path class="st9" d="M922.1,141.1c1.8,1.7,3.3,3.7,4.2,6c0.7,2.2,1.3,4.5,1.8,6.7c1.1,4.4,2.8,8.6,3.8,13c1.6,7.5,0.8,15.4-2.3,22.4
	c-1.1,2.5-2.5,4.8-3.1,7.4c-0.2,1-0.3,2.1-0.6,3c-0.5,1.4-1.1,2.7-2,3.9L911,224.3c-1-2.4-3-4.3-5.5-5.2c-2.5-0.8-5.1-1-7.7-0.5
	c1-1.5,1.4-3.2,2.3-4.7c0.5-0.8,1-1.6,1.5-2.5c0.4-0.9,0.8-1.9,1.1-2.9l1.7-4.7c2-5.5,3.9-11.1,5.6-16.7c1-3.3,1.9-6.6,2.5-10
	c0.2-0.9,0.2-1.7,0.1-2.6c-0.3-0.9-0.7-1.7-1.2-2.4c-1.9-3.2-3.5-6.5-4.8-9.9c-1-2.4-2-5.1-1.1-7.5c0.6-1.3,1.4-2.4,2.5-3.3
	C912.3,147.5,917,144,922.1,141.1z"/>
<path class="st5" d="M857,405l0.9-1.9c-1.8-8.7-0.9-17.7,0-26.6l2.5-24.3c0.4-3.9,0.8-7.8,0.3-11.7c-0.6-4.7-2.4-9.4-1.3-14
	c0.3-1.3,0.9-2.5,1.2-3.7c0.4-1.8,0.6-3.6,0.7-5.4l1-19.1c0.2-3.1,0.4-6.4,1.7-9.1v-0.5l-3.2-27.7l-8.5,144H857z"/>
<path class="st10" d="M719.8,429.4c2.3-4.3-0.3-9.6-3.4-13.4c-3-3.8-6.7-7.8-6.6-12.7c0.1-7,7.6-11.2,13.5-14.9
	c4.4-2.8,8.5-6,12.2-9.8c1.5-1.4,2.8-3.1,3.7-5c1.2-2.7,1.2-5.9,1.1-8.9c-0.3-10-0.8-20-1.5-30.1"/>
<path class="st11" d="M750.2,334.1c-0.2-3.7-2.2-7.1-5.5-9l-2.5,4.9l0.1-5.9c-1.2-0.3-2.4-0.5-3.6-0.4c-6,0.3-10.7,5.4-10.4,11.5
	c0.3,6,5.4,10.7,11.5,10.4C745.8,345.2,750.5,340.1,750.2,334.1L750.2,334.1z"/>
<path class="st2" d="M730.7,408.3c-2.8,5.4-9.4,7.5-14.7,4.7c-5.4-2.8-7.5-9.4-4.7-14.7c2.8-5.4,9.4-7.5,14.7-4.7
	c2.4,1.2,4.3,3.4,5.2,5.9l-6.8,5.6l7.5-1.7C731.9,405.1,731.5,406.8,730.7,408.3z"/>
<path class="st12" d="M725.3,387c-6,0.4-11.3-4.1-11.7-10.1c-0.4-5.3,3.1-10.1,8.2-11.4l-0.1,4.5l2.5-4.9l0,0
	c6-0.3,11.2,4.4,11.5,10.4c0,0,0,0,0,0c0.1,1.3-0.1,2.5-0.5,3.7C733.8,383.7,729.9,386.8,725.3,387z"/>
<path class="st9" d="M751.9,369.3c-6,0.2-11.1-4.5-11.3-10.5c-0.2-6,4.5-11.1,10.5-11.3c2-0.1,3.9,0.4,5.7,1.3l-1.9,5.3l4-3.8
	c2.1,2,3.4,4.7,3.5,7.6c0.1,1,0,2-0.3,3C760.9,365.7,756.8,369.1,751.9,369.3z"/>
<path class="st5" d="M748.7,337.1c-2.5,0.3-5,1.1-7.5,1.2s-5.3-0.4-6.9-2.4c-0.9-1.1-1.3-2.4-2-3.6c-0.7-1.1-1.6-2-2.8-2.6
	c-2.6,5.4-0.3,12,5.1,14.6c5.4,2.6,12,0.3,14.6-5.1c0.3-0.7,0.6-1.4,0.8-2.2C749.6,337,749.2,337,748.7,337.1z"/>
<path class="st5" d="M751.9,369.3c-6,0.3-11.2-4.3-11.5-10.4c-0.1-1.8,0.3-3.6,1-5.3c0.9,0.6,1.6,1.3,2.2,2.2
	c0.8,1.2,1.3,2.5,2.2,3.6c1.7,2,4.6,2.7,7.3,2.5c2.6-0.1,5.2-0.9,7.8-1.1c0.4,0,0.7-0.1,1.1-0.1
	C760.9,365.7,756.7,369.1,751.9,369.3z"/>
<path class="st5" d="M725.3,387c-6,0.3-11.2-4.3-11.5-10.4c-0.1-1.7,0.2-3.5,1-5.1c0.9,0.6,1.7,1.3,2.3,2.2c0.9,1.2,1.4,2.6,2.4,3.7
	c1.9,2.1,5,2.8,7.8,2.7s5.3-0.7,8-0.9C733.9,383.8,729.9,386.8,725.3,387z"/>
<path class="st5" d="M730.7,408.3c-2.5,5.5-8.9,8-14.5,5.5s-8-8.9-5.5-14.5l0,0c0.9,0.6,1.7,1.3,2.4,2.1c1,1.3,1.7,2.7,2.9,3.9
	c2.2,2.2,5.9,3.1,9.1,3.2C727,408.6,728.8,408.5,730.7,408.3z"/>
<path class="st4" d="M954.9,440.1c-17.4-1.8-34.1-3.3-50.2-4.6l6.4-7.5c-2.1-0.5-11.6,3.9-11.6,3.9l8.3-21.8
	c-10.8,0.8-16.2,23.1-16.2,23.1l-12-7.5l5.8,8.5c-49.2-3.5-91.6-4.9-127.4-4.9l5.4-6.4c-2.1-0.5-11.6,3.9-11.6,3.9l8.3-21.8
	c-10.8,0.8-16.2,23.1-16.2,23.1l-12-7.5l6.2,9c-24.5,0.2-48.9,1.3-73.2,3c5.5-10,24.2-19.6,24.2-19.6c-14.3,2.6-21.7,6.9-25.7,11
	c-0.3-20.7,5.3-41.3,16.6-60.8c0,0-29.5,39.2-25.7,65.5l0.4,4.7c-25,2.2-34.8,7.3-34.8,7.3L954.9,440.1z"/>
</svg>
